<?xml version="1.0" encoding="UTF-8"?>
<svg id="Layer_1" xmlns="http://www.w3.org/2000/svg" version="1.1" viewBox="0 0 807.56 185.06">
  <!-- Generator: Adobe Illustrator 30.2.1, SVG Export Plug-In . SVG Version: 2.1.1 Build 1)  -->
  <defs>
    <style>
      .st0 {
        fill: #3d3533;
      }

      .st1 {
        fill: #c95;
      }
    </style>
  </defs>
  <path class="st0" d="M183.47,111.71c-8.03-4.72-14.18-11.49-18.46-20.33-4.28-8.84-6.42-19.27-6.42-31.31s2.14-22.44,6.42-31.23c4.28-8.78,10.44-15.53,18.46-20.25,8.02-4.72,17.46-7.08,28.3-7.08,7.91,0,15.18,1.22,21.79,3.66,6.61,2.44,12.36,6.05,17.24,10.82l-5.04,10.25c-5.53-4.66-10.95-8.02-16.26-10.08-5.31-2.06-11.17-3.09-17.57-3.09-12.58,0-22.31,4.09-29.19,12.28-6.89,8.19-10.33,19.76-10.33,34.72s3.44,26.7,10.33,34.88c6.88,8.19,16.61,12.28,29.19,12.28,6.4,0,12.25-1.03,17.57-3.09,5.31-2.06,10.73-5.42,16.26-10.08l5.04,10.25c-4.88,4.77-10.63,8.37-17.24,10.82-6.61,2.44-13.88,3.66-21.79,3.66-10.85,0-20.28-2.36-28.3-7.08Z"/>
  <path class="st0" d="M308.7,2.82h13.34v114.67h-13.34V2.82Z"/>
  <path class="st0" d="M406.37,111.63c-7.86-4.77-13.9-11.55-18.13-20.33-4.23-8.78-6.34-19.14-6.34-31.07s2.09-22.47,6.26-31.31c4.17-8.84,10.19-15.61,18.05-20.33,7.86-4.72,17.16-7.08,27.89-7.08s20.03,2.36,27.9,7.08c7.86,4.72,13.88,11.49,18.05,20.33,4.17,8.84,6.26,19.22,6.26,31.15s-2.11,22.31-6.34,31.15c-4.23,8.84-10.28,15.64-18.14,20.41-7.86,4.77-17.11,7.16-27.73,7.16s-19.87-2.38-27.73-7.16ZM462.48,95.12c6.77-8.18,10.17-19.87,10.17-35.05s-3.36-26.84-10.09-34.97c-6.72-8.13-16.21-12.2-28.46-12.2s-21.61,4.09-28.38,12.28c-6.78,8.19-10.17,19.82-10.17,34.89s3.39,26.73,10.17,34.97c6.77,8.24,16.24,12.36,28.38,12.36s21.6-4.09,28.38-12.28Z"/>
  <path class="st0" d="M638.05,2.82v114.67h-10.25l-69.12-92.22v92.22h-12.52V2.82h10.25l69.12,92.22V2.82h12.52Z"/>
  <g>
    <path class="st1" d="M406.92,182.75l-8.83-10.2h-12.68v10.2h-3.24v-26.65h17.89c5.94,0,10.2,2.97,10.2,8.22,0,4.64-3.35,7.54-8.26,8.11l9.1,10.32h-4.19ZM399.83,169.57c4.3,0,7.16-1.64,7.16-5.25s-2.86-5.25-7.16-5.25h-14.47v10.51h14.47Z"/>
    <path class="st1" d="M453.81,179.78v2.97h-25.77v-26.65h25.39v2.97h-22.2v8.64h18.81v2.97h-18.81v9.1h22.58Z"/>
    <path class="st1" d="M492.64,175.59h-17.97l-3.88,7.16h-3.54l14.66-26.65h3.58l14.66,26.65h-3.62l-3.88-7.16ZM491.08,172.7l-7.42-13.67-7.42,13.67h14.85Z"/>
    <path class="st1" d="M539.42,179.78v2.97h-23.6v-26.65h3.2v23.68h20.41Z"/>
    <path class="st1" d="M602.95,179.78v2.97h-25.77v-26.65h25.39v2.97h-22.2v8.64h18.81v2.97h-18.81v9.1h22.58Z"/>
    <path class="st1" d="M646.73,175.02c0,4.91-4.99,8.53-13.67,8.53-5.83,0-11.42-1.83-15.57-5.48l2.25-2.4c3.88,3.43,8.19,4.91,13.52,4.91,6.43,0,10.2-2.02,10.2-5.33s-3.92-4.04-11.12-4.64c-7.12-.61-13.93-2.17-13.93-7.42s6.32-7.88,13.44-7.88c5.79,0,10.55,2.02,13.63,4.76l-2.51,2.13c-2.59-2.55-6.51-3.88-10.96-3.92-4.76-.04-10.32,1.29-10.32,4.8,0,3.31,5.02,4,11.31,4.49,8.11.65,13.74,2.21,13.74,7.46Z"/>
    <path class="st1" d="M687.69,158.99h-12.6v23.76h-3.2v-23.76h-12.56v-2.89h28.36v2.89Z"/>
    <path class="st1" d="M720.8,175.59h-17.97l-3.88,7.16h-3.54l14.66-26.65h3.58l14.66,26.65h-3.62l-3.88-7.16ZM719.24,172.7l-7.42-13.67-7.42,13.67h14.85Z"/>
    <path class="st1" d="M764.39,158.99h-12.6v23.76h-3.2v-23.76h-12.56v-2.89h28.36v2.89Z"/>
    <path class="st1" d="M806.07,179.78v2.97h-25.77v-26.65h25.39v2.97h-22.2v8.64h18.81v2.97h-18.81v9.1h22.58Z"/>
  </g>
  <polygon class="st1" points="87.67 88.04 100.35 117.48 113.85 117.48 63.43 2.82 51.89 2.82 1.47 117.48 15.13 117.48 27.81 88.04 32.53 76.98 57.74 18.27 82.95 76.98 87.67 88.04"/>
  <polygon class="st0" points="779.91 88.04 792.6 117.48 806.1 117.48 755.68 2.82 744.13 2.82 693.71 117.48 707.37 117.48 720.06 88.04 724.77 76.98 749.98 18.27 775.19 76.98 779.91 88.04"/>
</svg>